<?xml version="1.0" encoding="UTF-8"?>
<svg id="a" data-name="Layer 1" xmlns="http://www.w3.org/2000/svg" viewBox="0 0 824.95 654.87">
  <defs>
    <style>
      .b {
        fill: none;
        stroke: #000;
        stroke-width: .07px;
      }
    </style>
  </defs>
  <path class="b" d="M48.22,48.22h91.06V14.21h14.17V.04h153.78v14.17h14.17v34.01h182.13V14.21h14.17V.04h153.78v14.17h14.17v34.01h91.06"/>
  <path class="b" d="M776.73,48.22v69.8h34.02v14.17h14.17v111.26h-14.17v14.17h-34.02v139.61h34.02v14.17h14.17v111.26h-14.17v14.17h-34.02v69.8"/>
  <path class="b" d="M776.73,606.65h-91.06v34.01h-14.17v14.17h-153.78v-14.17h-14.17v-34.01h-182.13v34.01h-14.17v14.17h-153.78v-14.17h-14.17v-34.01H48.22"/>
  <path class="b" d="M48.22,606.65v-69.8H14.21v-14.17H.04v-111.26h14.17v-14.17h34.02v-139.61H14.21v-14.17H.04v-111.26h14.17v-14.17h34.02V48.22"/>
</svg>